<?xml version="1.0" encoding="utf-8"?>
<!-- Generator: Adobe Illustrator 24.1.0, SVG Export Plug-In . SVG Version: 6.00 Build 0)  -->
<svg version="1.1" id="Layer_1" xmlns="http://www.w3.org/2000/svg" xmlns:xlink="http://www.w3.org/1999/xlink" x="0px" y="0px"
	 viewBox="0 0 512 512" style="enable-background:new 0 0 512 512;" xml:space="preserve">
<style type="text/css">
	.st0{fill:#767676;}
</style>
<g>
	<path class="st0" d="M256,40C136.9,40,40,136.9,40,256c0,40.6,11.3,80.1,32.7,114.3c3.1,5,3.9,11.1,2.1,16.7L51,461l73.9-23.8
		c5.7-1.8,11.8-1,16.7,2.1C175.9,460.7,215.4,472,256,472c119.1,0,216-96.9,216-216S375.1,40,256,40z M156,281
		c-13.8,0-25-11.2-25-25c0-13.8,11.2-25,25-25c13.8,0,25,11.2,25,25C181,269.8,169.8,281,156,281z M256,281c-13.8,0-25-11.2-25-25
		c0-13.8,11.2-25,25-25s25,11.2,25,25C281,269.8,269.8,281,256,281z M356,281c-13.8,0-25-11.2-25-25c0-13.8,11.2-25,25-25
		s25,11.2,25,25C381,269.8,369.8,281,356,281z"/>
</g>
</svg>
